<?xml version="1.0" encoding="UTF-8" standalone="no"?>
<!-- Created with Inkscape (http://www.inkscape.org/) -->
<svg id="svg2" xmlns:rdf="http://www.w3.org/1999/02/22-rdf-syntax-ns#" xmlns="http://www.w3.org/2000/svg" height="50.761" width="384.42" version="1.1" xmlns:cc="http://creativecommons.org/ns#" xmlns:dc="http://purl.org/dc/elements/1.1/">
 <metadata id="metadata7">
  <rdf:RDF>
   <cc:Work rdf:about="">
    <dc:format>image/svg+xml</dc:format>
    <dc:type rdf:resource="http://purl.org/dc/dcmitype/StillImage"/>
    <dc:title/>
   </cc:Work>
  </rdf:RDF>
 </metadata>
 <g id="layer1" font-size="14px" font-weight="normal" transform="translate(-3.3686885,-1000.8444)" font-style="normal" font-stretch="normal" font-variant="normal" font-family="FontAwesome">
  <flowRoot id="flowRoot2985" style="letter-spacing:-9.18000031px;word-spacing:0px;" xml:space="preserve" line-height="125%" fill="#000000"><flowRegion id="flowRegion2987"><rect id="rect2989" y="437.64" width="410.7" x="99.781" height="118.49"/></flowRegion><flowPara id="flowPara2991"/></flowRoot>
  <g id="flowRoot2993" style="letter-spacing:-9.18000031px;word-spacing:0px;" transform="translate(-141.65304,570.17574)" line-height="125%" fill="#b71342">
   <path id="path3770" d="m188.65,442.26c-0.81596,0.00004-1.344,0.47978-1.5842,1.4392l-7.5586,26.857c-1.0562,3.7442-2.7364,6.4922-5.0405,8.2441-2.3042,1.752-5.3284,2.6279-9.0725,2.6279-2.2075,0-4.1393-0.27612-5.7953-0.82837-1.656-0.55224-3.0601-1.3085-4.2122-2.2687s-2.064-2.1123-2.7356-3.4563c-0.67164-1.344-1.1276-2.7836-1.3678-4.3187l-6.0491-36.505c-0.14356-0.91109-0.21533-1.6787-0.21533-2.3027h13.753c-0.00001,0.24029,0.0117,0.52813,0.0352,0.86353,0.0234,0.3355,0.0593,0.67168,0.10767,1.0085l5.113,33.264c0.14354,1.103,0.71922,1.6546,1.727,1.6545,0.43211,0.00001,0.7921-0.10802,1.08-0.3241,0.28782-0.21605,0.50425-0.61192,0.64929-1.1876l7.4158-26.136c1.0078-3.5039,2.5675-6.0838,4.6791-7.7399,2.1115-1.656,5.1353-2.484,9.0714-2.484,3.8891,0.00005,6.8415,0.81633,8.8572,2.4488,2.0156,1.6326,3.4797,4.1049,4.3923,7.4169l7.2708,26.495c0.14348,0.5757,0.35955,0.97157,0.64819,1.1876,0.28851,0.21608,0.64886,0.32411,1.081,0.3241,0.95941,0.00001,1.5351-0.5515,1.727-1.6545l5.5437-33.264c0.0966-0.38374,0.14494-0.73164,0.14502-1.0437-0.00008-0.31196-0.00008-0.58808,0-0.82837h13.608c-0.00009,0.38384-0.0122,0.73174-0.0362,1.0437-0.0243,0.31205-0.084,0.73173-0.17908,1.259l-6.4819,36.578c-0.57577,3.2153-2.0036,5.8191-4.2836,7.8113-2.2801,1.9922-5.6042,2.9883-9.9723,2.9883-7.2481,0-11.832-3.624-13.75-10.872l-6.9851-26.857c-0.24028-0.95943-0.76836-1.4392-1.5842-1.4392z"/>
   <path id="path3772" d="m297.48,478.26c0.19182,0.38379,0.34746,0.74378,0.46691,1.08,0.11932,0.33618,0.22736,0.69617,0.3241,1.08h-14.689c-0.0953-0.33545-0.19085-0.63538-0.28674-0.89979-0.096-0.2644-0.19231-0.51672-0.28894-0.75695l-2.5906-5.9041h-28.802l-2.5203,5.8337c-0.0952,0.28712-0.19081,0.57459-0.28674,0.86243-0.096,0.28784-0.16811,0.57605-0.21644,0.86463h-15.047c0.0952-0.38379,0.20288-0.74378,0.323-1.08,0.12011-0.33618,0.27612-0.69617,0.46802-1.08l17.424-38.593c1.3916-3.0234,3.2153-5.2792,5.4712-6.7676,2.2558-1.4882,5.1357-2.2324,8.6396-2.2324,3.4087,0.00005,6.253,0.74419,8.5331,2.2324,2.28,1.4883,4.1158,3.7442,5.5074,6.7676zm-21.817-16.128-7.4883-17.424c-0.24027-0.52731-0.55228-0.9111-0.93603-1.1514-0.38383-0.2402-0.81595-0.36031-1.2964-0.36035-0.43216,0.00004-0.84012,0.10807-1.2239,0.32409-0.38382,0.21611-0.69583,0.61198-0.93603,1.1876l-7.4158,17.424z"/>
   <path id="path3774" d="m352.92,444.64-34.991,0c-0.81594,0.00003-1.452,0.0843-1.9083,0.25268-0.45632,0.1685-0.82802,0.39628-1.1151,0.68335-0.67238,0.6724-1.0086,1.5125-1.0086,2.5203-0.00001,1.0562,0.40795,1.9204,1.2239,2.5928,0.28856,0.24026,0.63682,0.42007,1.0448,0.53943,0.40794,0.11941,0.99571,0.1791,1.7633,0.17908h21.384c2.7363,0.00002,5.0526,0.39626,6.9489,1.1887,1.8962,0.7925,3.4918,1.8604,4.7867,3.2036,1.2963,1.3448,2.3166,2.881,3.0608,4.6088,0.74409,1.7278,1.1162,3.5519,1.1162,5.4723-0.00005,1.7754-0.32415,3.4794-0.97229,5.1119-0.64825,1.6326-1.5239,3.0963-2.6268,4.3912-1.3448,1.5366-3.0132,2.7609-5.0054,3.6727-1.9922,0.91186-4.4283,1.3678-7.3081,1.3678h-37.727v-12.456h35.424c1.0078,0.00001,1.7874-0.10802,2.339-0.3241,0.55147-0.21605,0.99569-0.51598,1.3326-0.89978,0.5273-0.62401,0.79097-1.3682,0.79102-2.2324-0.00005-1.0561-0.3355-1.9197-1.0064-2.5906-0.33696-0.38523-0.75737-0.66172-1.2612-0.82947-0.50395-0.1677-1.2356-0.25156-2.1951-0.25158h-19.802c-3.2637,0.00002-5.8916-0.39586-7.8838-1.1876-1.9922-0.79172-3.6358-1.86-4.9307-3.2047-1.2964-1.3432-2.3046-2.867-3.0245-4.5714-0.71997-1.7043-1.08-3.5643-1.08-5.58,0-1.9687,0.37207-3.817,1.1162-5.5448,0.74414-1.7278,1.7644-3.2633,3.0608-4.6066,1.2949-1.3447,2.9264-2.4129,4.8944-3.2047,1.968-0.7917,4.5838-1.1876,7.8475-1.1876h35.712z"/>
   <path id="path3776" d="m357.18,433.4c-0.38379-0.38375-0.65991-0.69539-0.82837-0.93494-0.16846-0.23945-0.30029-0.47932-0.39551-0.71961h16.055c0.0952,0.19195,0.22704,0.43182,0.39551,0.71961,0.16844,0.28789,0.42039,0.59953,0.75586,0.93494l12.241,13.322c0.33542,0.33548,0.67087,0.5032,1.0064,0.50317,0.33688,0.00003,0.67306-0.16769,1.0085-0.50317l12.168-13.322c0.62398-0.62252,1.0319-1.174,1.2239-1.6546h15.768c-0.14361,0.24029-0.29925,0.48016-0.46692,0.71961-0.16778,0.23955-0.44427,0.55119-0.82946,0.93494l-22.823,25.2v21.817h-13.177v-22.68z"/>
   <path id="path3778" d="m479.58,470.99c-0.00006,1.8252-0.25201,3.3977-0.75586,4.7175-0.50396,1.3198-1.176,2.3998-2.016,3.2399-0.84015,0.84009-1.8124,1.4641-2.9169,1.8721-1.1046,0.40796-2.2566,0.61194-3.4563,0.61194-2.064,0-3.876-0.29993-5.436-0.89978-1.5601-0.59985-2.9158-1.5721-4.0671-2.9169l-26.712-30.887c-0.38381-0.4321-0.76759-0.64816-1.1514-0.6482-0.33694,0.00004-0.62514,0.11979-0.86463,0.35926-0.23952,0.23953-0.35927,0.57535-0.35925,1.0074v32.977h-12.817v-38.375c-0.00001-2.0639,0.27612-3.8159,0.82837-5.2559,0.55224-1.4399,1.3323-2.6162,2.3401-3.5288,1.0078-0.91255,2.2075-1.5728,3.5991-1.9808,1.3916-0.40791,2.9033-0.61189,4.5352-0.61194,2.3042,0.00005,4.2484,0.36003,5.8326,1.08,1.5842,0.72001,3.1446,1.9684,4.6813,3.7452l23.759,28.439c0.19185,0.24025,0.38374,0.39626,0.57568,0.46802,0.19185,0.0718,0.40791,0.10768,0.6482,0.10767,0.67231,0.00001,1.0085-0.43212,1.0085-1.2964v-31.463h12.744z"/>
   <path id="path3780" d="m484.12,451.98,19.582,0,0,8.2793-19.582,0z"/>
   <path id="path3782" d="m517.42,431.75c2.2558,0.00005,4.1517,0.25201,5.6876,0.75586,1.5359,0.50396,2.7718,1.284,3.7079,2.3401,0.93602,1.0562,1.608,2.4002,2.016,4.032,0.40793,1.6319,0.61191,3.5757,0.61193,5.8316v35.712h-12.959v-33.768c-0.00001-1.3447-0.62403-2.0171-1.8721-2.0171h-7.9914v-12.887z"/>
  </g>
 </g>
</svg>
